<svg width="164" height="164" viewBox="0 0 164 164" fill="none" xmlns="http://www.w3.org/2000/svg">
<path fill-rule="evenodd" clip-rule="evenodd" d="M40.6029 41.7071L0 83.3605L40.6551 123.659C63.0149 145.823 81.6062 163.976 81.9687 164C82.3312 164.024 100.937 145.595 123.314 123.046L164 82.0485L123.958 40.9974C101.936 18.4193 83.3066 -0.0301371 82.562 3.69596e-05C81.8161 0.0288991 62.9354 18.7972 40.6029 41.7071ZM88.4888 24.3164L81.3975 31.5398H95.3909H109.383L114.255 36.0961L119.125 40.6524L104.455 40.6878L89.7849 40.7232V55.1543C89.7849 63.0914 89.3077 69.5853 88.7248 69.5853C88.1419 69.5853 86.0881 67.9297 84.1608 65.9054C80.7769 62.3514 80.6569 61.7152 80.6569 47.2526V32.2784L73.0897 39.8114L65.5226 47.3458L62.3929 43.9938L59.2633 40.6432L74.172 25.6008L89.0821 10.557L92.3304 13.825L95.5786 17.093L88.4888 24.3164ZM122.608 44.2063C123.92 45.4002 124.993 47.0335 124.993 47.8364C124.993 48.6393 118.557 55.7512 110.688 63.6424L96.3845 77.9895L93.0436 74.8317L89.7041 71.6752L104.394 56.8558C112.472 48.7036 119.339 42.0351 119.653 42.0351C119.968 42.0351 121.296 43.0125 122.608 44.2063ZM137.707 60.5607C149.064 66.0917 153.814 79.6464 148.223 90.5655C141.04 104.591 124.172 107.539 112.805 96.7551C101.435 85.9659 104.253 67.9376 118.434 60.7299C125.679 57.0474 130.409 57.0054 137.707 60.5607ZM121.225 68.7929C117.153 71.0626 114.665 75.7277 114.607 81.1958C114.573 84.4808 115.68 86.7163 118.995 90.0512C125.227 96.3209 131.335 96.2658 137.679 89.8833C141.867 85.6694 142.213 84.7603 141.541 79.716C140.178 69.4922 129.89 63.9598 121.225 68.7929ZM96.7875 87.7645C98.7774 89.9751 98.7891 90.3582 96.9244 91.9155C95.769 92.8797 95.0414 95.1165 95.2605 97.0227C95.6478 100.371 95.7769 100.409 105.081 99.9601C114.102 99.5246 114.678 99.6754 118.447 103.467C123.243 108.292 123.867 116.021 119.857 120.932L117.328 124.03L114.366 121.092C112.046 118.793 111.746 117.81 112.982 116.566C115.351 114.183 114.886 110.521 112.017 108.977C110.232 108.017 107.797 108.044 103.867 109.07C97.1096 110.835 92.2443 109.313 89.0703 104.44C86.2837 100.161 86.3202 93.1106 89.1525 88.7616C91.7957 84.7039 93.8 84.4415 96.7875 87.7645ZM96.335 114.559C110.607 129.621 110.92 130.08 108.657 132.598C107.379 134.019 105.681 135.181 104.884 135.181C104.086 135.181 96.7236 128.41 88.5214 120.135L73.6074 105.087L76.7305 101.742C78.4492 99.9024 80.2683 98.5564 80.7729 98.7505C81.2776 98.9447 88.2801 106.058 96.335 114.559ZM88.5044 123.046C88.5174 124.309 88.8917 131.129 89.335 138.201C90.1383 151.003 90.1253 151.079 86.4597 154.928C84.4346 157.056 82.2999 158.796 81.717 158.796C81.1341 158.796 80.6569 152.302 80.6569 144.365V129.933H65.4052H50.1535L54.5767 125.342L58.9999 120.75H73.7404C86.9005 120.75 88.4835 120.997 88.5044 123.046Z" fill="black"/>
</svg>
