<svg width="80" height="80" viewBox="0 0 80 80" fill="none" xmlns="http://www.w3.org/2000/svg">
<path fill-rule="evenodd" clip-rule="evenodd" d="M0 40V80H40H80V40V0H40H0V40ZM38 40V62.7407L37.7593 62.7399C36.9279 62.7373 34.4637 62.2221 32.9561 61.7359C25.8956 59.4588 20.1657 53.5638 18.1204 46.4727C17.4453 44.1324 17.2315 42.5753 17.2315 40C17.2315 37.4247 17.4453 35.8676 18.1204 33.5273C20.1665 26.4332 25.8927 20.5421 32.9561 18.2641C34.4865 17.7705 36.773 17.2883 37.6852 17.2667L38 17.2593V40ZM53.8144 18.2683C55.2063 18.5042 56.7011 19.1159 57.9237 19.9496C58.2304 20.1588 58.8518 20.6974 59.3044 21.1465C61.4208 23.2463 62.4645 25.9024 62.3467 28.8889C62.1564 33.7089 58.8213 37.6025 53.9907 38.644C53.1125 38.8334 50.8879 38.833 50 38.6433C46.8863 37.9781 44.3445 36.0868 42.864 33.3333C40.3481 28.6542 41.8731 22.706 46.3306 19.8118C48.6087 18.3327 51.1284 17.813 53.8144 18.2683ZM62.8144 42.1296C62.8142 42.2009 62.7458 42.7259 62.6623 43.2963C61.8276 49.0028 58.8756 54.1662 54.3704 57.7999C51.773 59.8948 48.8405 61.3544 45.5859 62.1724C44.577 62.4259 42.7582 62.7407 42.302 62.7407H42.0741V52.3704V42H52.4444C62.2718 42 62.8148 42.0068 62.8144 42.1296Z" fill="black"/>
</svg>
