<svg width="259" height="61" viewBox="0 0 259 61" fill="none" xmlns="http://www.w3.org/2000/svg">
<path d="M43.384 13.44C47.6933 13.44 51.1067 14.6987 53.624 17.216C56.1413 19.6907 57.4 23.424 57.4 28.416V48H49.4V29.44C49.4 26.4533 48.7387 24.2133 47.416 22.72C46.0933 21.184 44.1947 20.416 41.72 20.416C39.032 20.416 36.8773 21.312 35.256 23.104C33.6347 24.8533 32.824 27.3707 32.824 30.656V48H24.824V29.44C24.824 26.4533 24.1627 24.2133 22.84 22.72C21.5173 21.184 19.6187 20.416 17.144 20.416C14.4133 20.416 12.2373 21.2907 10.616 23.04C9.03733 24.7893 8.248 27.328 8.248 30.656V48H0.248V13.824H7.864V18.176C9.144 16.64 10.744 15.4667 12.664 14.656C14.584 13.8453 16.7173 13.44 19.064 13.44C21.624 13.44 23.8853 13.9307 25.848 14.912C27.8533 15.8507 29.432 17.2587 30.584 19.136C31.992 17.344 33.8053 15.9573 36.024 14.976C38.2427 13.952 40.696 13.44 43.384 13.44ZM98.998 13.824L82.998 50.752C81.5047 54.464 79.6913 57.0667 77.558 58.56C75.4247 60.096 72.8433 60.864 69.814 60.864C68.1073 60.864 66.422 60.5867 64.758 60.032C63.094 59.4773 61.7287 58.7093 60.662 57.728L63.862 51.84C64.63 52.5653 65.526 53.1413 66.55 53.568C67.6167 53.9947 68.6833 54.208 69.75 54.208C71.158 54.208 72.31 53.8453 73.206 53.12C74.1447 52.3947 74.998 51.1787 75.766 49.472L76.342 48.128L61.43 13.824H69.75L80.502 39.104L91.318 13.824H98.998ZM114.121 48.448C111.347 48.448 108.638 48.0853 105.993 47.36C103.347 46.6347 101.235 45.7173 99.6565 44.608L102.729 38.528C104.265 39.552 106.099 40.384 108.233 41.024C110.409 41.6213 112.542 41.92 114.633 41.92C119.411 41.92 121.801 40.6613 121.801 38.144C121.801 36.9493 121.182 36.1173 119.945 35.648C118.75 35.1787 116.809 34.7307 114.121 34.304C111.305 33.8773 109.001 33.3867 107.209 32.832C105.459 32.2773 103.923 31.3173 102.601 29.952C101.321 28.544 100.681 26.6027 100.681 24.128C100.681 20.8853 102.025 18.304 104.713 16.384C107.443 14.4213 111.113 13.44 115.721 13.44C118.067 13.44 120.414 13.7173 122.761 14.272C125.107 14.784 127.027 15.488 128.521 16.384L125.449 22.464C122.547 20.7573 119.283 19.904 115.657 19.904C113.31 19.904 111.518 20.2667 110.281 20.992C109.086 21.6747 108.489 22.592 108.489 23.744C108.489 25.024 109.129 25.9413 110.409 26.496C111.731 27.008 113.758 27.4987 116.489 27.968C119.219 28.3947 121.459 28.8853 123.209 29.44C124.958 29.9947 126.451 30.9333 127.689 32.256C128.969 33.5787 129.609 35.456 129.609 37.888C129.609 41.088 128.222 43.648 125.449 45.568C122.675 47.488 118.899 48.448 114.121 48.448ZM155.89 13.44C160.199 13.44 163.655 14.6987 166.258 17.216C168.861 19.7333 170.162 23.4667 170.162 28.416V48H162.162V29.44C162.162 26.4533 161.458 24.2133 160.05 22.72C158.642 21.184 156.637 20.416 154.034 20.416C151.09 20.416 148.765 21.312 147.058 23.104C145.351 24.8533 144.498 27.392 144.498 30.72V48H136.498V0.511997H144.498V17.792C145.821 16.384 147.442 15.3173 149.362 14.592C151.325 13.824 153.501 13.44 155.89 13.44ZM195.983 48.448C192.527 48.448 189.412 47.7013 186.639 46.208C183.866 44.7147 181.69 42.6453 180.111 40C178.575 37.312 177.807 34.2827 177.807 30.912C177.807 27.5413 178.575 24.5333 180.111 21.888C181.69 19.2427 183.866 17.1733 186.639 15.68C189.412 14.1867 192.527 13.44 195.983 13.44C199.482 13.44 202.618 14.1867 205.391 15.68C208.164 17.1733 210.319 19.2427 211.855 21.888C213.434 24.5333 214.223 27.5413 214.223 30.912C214.223 34.2827 213.434 37.312 211.855 40C210.319 42.6453 208.164 44.7147 205.391 46.208C202.618 47.7013 199.482 48.448 195.983 48.448ZM195.983 41.6C198.927 41.6 201.359 40.6187 203.279 38.656C205.199 36.6933 206.159 34.112 206.159 30.912C206.159 27.712 205.199 25.1307 203.279 23.168C201.359 21.2053 198.927 20.224 195.983 20.224C193.039 20.224 190.607 21.2053 188.687 23.168C186.81 25.1307 185.871 27.712 185.871 30.912C185.871 34.112 186.81 36.6933 188.687 38.656C190.607 40.6187 193.039 41.6 195.983 41.6ZM240.817 13.44C244.145 13.44 247.11 14.1653 249.713 15.616C252.358 17.0667 254.428 19.1147 255.921 21.76C257.414 24.4053 258.161 27.456 258.161 30.912C258.161 34.368 257.414 37.44 255.921 40.128C254.428 42.7733 252.358 44.8213 249.713 46.272C247.11 47.7227 244.145 48.448 240.817 48.448C236.209 48.448 232.561 46.912 229.873 43.84V60.416H221.873V13.824H229.489V18.304C230.812 16.6827 232.433 15.4667 234.353 14.656C236.316 13.8453 238.47 13.44 240.817 13.44ZM239.921 41.6C242.865 41.6 245.276 40.6187 247.153 38.656C249.073 36.6933 250.033 34.112 250.033 30.912C250.033 27.712 249.073 25.1307 247.153 23.168C245.276 21.2053 242.865 20.224 239.921 20.224C238.001 20.224 236.273 20.672 234.737 21.568C233.201 22.4213 231.985 23.6587 231.089 25.28C230.193 26.9013 229.745 28.7787 229.745 30.912C229.745 33.0453 230.193 34.9227 231.089 36.544C231.985 38.1653 233.201 39.424 234.737 40.32C236.273 41.1733 238.001 41.6 239.921 41.6Z" fill="black"/>
</svg>
